<svg width="105" height="90" viewBox="0 0 105 90" fill="none" xmlns="http://www.w3.org/2000/svg">
<path d="M2.7477 56.2866H0V66.8494H6.04193V64.524H2.7477V56.2866Z" fill="#5E1211"/>
<path d="M23.903 61.3747C23.903 58.1811 21.0993 55.9392 18.0575 55.9392C15.0156 55.9392 12.2119 58.1811 12.2119 61.3747C12.2119 64.7933 14.665 67.2026 18.0575 67.2026C21.4499 67.2026 23.903 64.7933 23.903 61.3747ZM15.0716 61.3889C15.0716 59.932 16.4174 58.6008 18.0575 58.6008C19.6975 58.6008 21.0433 59.932 21.0433 61.3889C21.0433 63.2103 19.6975 64.5411 18.0575 64.5411C16.4174 64.5411 15.0716 63.2103 15.0716 61.3889Z" fill="#5E1211"/>
<path d="M40.6176 66.8494H43.3649L41.7671 56.2866H39.0336L36.7626 61.9321L34.6179 56.2866H31.9124L30.1182 66.8494H32.8517L33.7345 60.7692H33.7625L36.1877 66.8494H37.2812L39.8187 60.7692H39.8467L40.6176 66.8494Z" fill="#5E1211"/>
<path d="M58.8365 62.7447H58.8085L53.776 56.2866H51.0283V66.8494H53.776V60.3771H53.804L58.8365 66.8494H61.5842V56.2866H58.8365V62.7447Z" fill="#5E1211"/>
<path d="M72.2487 56.2866H69.501V66.8494H72.2487V56.2866Z" fill="#5E1211"/>
<path d="M85.0043 58.6729C85.9436 58.6729 86.8545 59.0792 87.4156 59.8358V56.5437C86.6025 56.2076 85.7894 56.0114 84.9061 56.0114C83.4203 56.0114 81.9202 56.6557 80.8832 57.7205C79.8737 58.7573 79.3271 60.1436 79.3271 61.5871C79.3271 63.1559 79.8595 64.5289 81.0232 65.5795C82.1166 66.5741 83.5185 67.1345 84.9905 67.1345C85.8454 67.1345 86.5043 66.924 87.4156 66.6443V63.3522C86.8407 64.0387 85.9436 64.4729 85.0465 64.4729C83.3363 64.4729 82.1868 63.2678 82.1868 61.6009C82.1868 59.9615 83.3221 58.6729 85.0043 58.6729Z" fill="#5E1211"/>
<path d="M101.018 56.2866H98.0183L93.9531 66.8494H96.8688L97.5979 65.0142H101.383L102.07 66.8494H105L101.018 56.2866ZM98.3337 62.913L99.4694 59.5507H99.4974L100.619 62.913H98.3337Z" fill="#5E1211"/>
<path d="M34.1031 85.4622H31.2326V82.7869H29.9912V89.8855H31.2326V86.6506H34.1031V89.8855H35.3445V82.7869H34.1031V85.4622Z" fill="#5E1211"/>
<path d="M43.8947 82.6737C41.859 82.6737 40.2031 84.321 40.2031 86.3454C40.2031 88.3605 41.859 89.9999 43.8947 89.9999C45.9304 89.9999 47.5863 88.3605 47.5863 86.3454C47.5863 84.321 45.9304 82.6737 43.8947 82.6737ZM46.3449 86.3366C46.3449 87.7016 45.2456 88.8119 43.8947 88.8119C42.5434 88.8119 41.4445 87.7016 41.4445 86.3366C41.4445 84.972 42.5434 83.8621 43.8947 83.8621C45.2456 83.8621 46.3449 84.972 46.3449 86.3366Z" fill="#5E1211"/>
<path d="M51.8486 83.9753H53.5593V89.8855H54.8007V83.9753H56.5292V82.7869H51.8486V83.9753Z" fill="#5E1211"/>
<path d="M61.8564 89.8855H65.7837V88.6975H63.0978V86.6155H65.7051V85.4275H63.0978V83.9753H65.7837V82.7869H61.8564V89.8855Z" fill="#5E1211"/>
<path d="M72.8469 88.6975V82.7869H71.6055V89.8855H74.9941V88.6975H72.8469Z" fill="#5E1211"/>
<path d="M94.9934 74.2964H74.9932V75.4914H94.9934V74.2964Z" fill="#5E1211"/>
<path d="M30.0042 74.2925H10.0039V75.4875H30.0042V74.2925Z" fill="#5E1211"/>
<path d="M39.1542 72.7551L38.3143 72.2703L37.3592 73.9238L36.404 72.2703L35.5646 72.7551L36.5193 74.4082H34.6094V75.3774H36.5193L35.5646 77.0305L36.404 77.5149L37.3592 75.8618L38.3143 77.5149L39.1542 77.0305L38.199 75.3774H40.1094V74.4082H38.199L39.1542 72.7551Z" fill="#5E1211"/>
<path d="M49.2392 72.7551L48.3993 72.2703L47.4445 73.9238L46.4894 72.2703L45.6495 72.7551L46.6047 74.4082H44.6943V75.3774H46.6047L45.6495 77.0305L46.4894 77.5149L47.4445 75.8618L48.3993 77.5149L49.2392 77.0305L48.284 75.3774H50.1943V74.4082H48.284L49.2392 72.7551Z" fill="#5E1211"/>
<path d="M59.3456 72.7551L58.5057 72.2703L57.5506 73.9238L56.5954 72.2703L55.756 72.7551L56.7111 74.4082H54.8008V75.3774H56.7111L55.756 77.0305L56.5954 77.5149L57.5506 75.8618L58.5057 77.5149L59.3456 77.0305L58.3904 75.3774H60.3008V74.4082H58.3904L59.3456 72.7551Z" fill="#5E1211"/>
<path d="M69.4266 72.7551L68.5868 72.2703L67.6316 73.9238L66.6764 72.2703L65.837 72.7551L66.7922 74.4082H64.8818V75.3774H66.7922L65.837 77.0305L66.6764 77.5149L67.6316 75.8618L68.5868 77.5149L69.4266 77.0305L68.4715 75.3774H70.3818V74.4082H68.4715L69.4266 72.7551Z" fill="#5E1211"/>
<path d="M74.3689 0H30.6142C30.2691 0 29.9912 0.27935 29.9912 0.624677V44.3451C29.9912 44.6905 30.2691 44.9715 30.6142 44.9715H74.3689C74.7124 44.9715 74.9919 44.6905 74.9919 44.3451V0.624677C74.9919 0.27935 74.7124 0 74.3689 0ZM73.7421 43.7226H31.2414V1.24936H73.7421V43.7226Z" fill="#5E1211"/>
<path d="M72.5077 2.50031H32.5068V42.4735H72.5077V2.50031ZM57.5082 35.605C57.5082 35.9482 57.227 36.2297 56.8835 36.2297H39.382V36.2276C39.0364 36.2276 38.7569 35.9482 38.7569 35.6033C38.7569 35.258 39.0364 34.9786 39.382 34.9786H40.0066C40.3522 34.9786 40.6317 34.6993 40.6317 34.3556V10.6203C40.6317 10.275 40.3522 9.99563 40.0066 9.99563H39.382C39.0364 9.99563 38.7569 9.71628 38.7569 9.37095C38.7569 9.02562 39.0364 8.74627 39.382 8.74627H46.8817C47.2268 8.74627 47.5068 9.02562 47.5068 9.37095C47.5068 9.71628 47.2268 9.99563 46.8817 9.99563H46.2566C45.9115 9.99563 45.6315 10.275 45.6315 10.6203V34.3556C45.6315 34.6993 45.9115 34.9786 46.2566 34.9786H55.6312C55.9768 34.9786 56.2584 34.6993 56.2584 34.3556V33.7314C56.2584 33.386 56.5379 33.1067 56.8835 33.1067C57.2286 33.1067 57.5082 33.386 57.5082 33.7314V35.605ZM65.0079 34.9786H65.633V34.9807C65.9786 34.9807 66.2581 35.2597 66.2581 35.605C66.2581 35.9503 65.9786 36.2297 65.633 36.2297H61.8833V36.2276C61.5378 36.2276 61.2582 35.9482 61.2582 35.6033C61.2582 35.258 61.5378 34.9786 61.8833 34.9786H62.508C62.8536 34.9786 63.1331 34.6993 63.1331 34.3556V23.7361C63.1331 23.3928 62.8536 23.1118 62.508 23.1118H50.0067C49.6612 23.1118 49.3816 22.832 49.3816 22.4871C49.3816 22.1418 49.6612 21.8625 50.0067 21.8625H62.508C62.8536 21.8625 63.1331 21.5831 63.1331 21.2378V10.6203C63.1331 10.275 62.8536 9.99563 62.508 9.99563H61.8833C61.5378 9.99563 61.2582 9.71628 61.2582 9.37095C61.2582 9.02562 61.5378 8.74627 61.8833 8.74627H65.633C65.9786 8.74627 66.2581 9.02562 66.2581 9.37095C66.2581 9.71628 65.9786 9.99563 65.633 9.99563H65.0079C64.6628 9.99563 64.3832 10.275 64.3832 10.6203V34.3556C64.3832 34.6993 64.6628 34.9786 65.0079 34.9786Z" fill="#5E1211"/>
<path d="M43.745 9.99445H42.4952C42.1497 9.99445 41.8701 10.2738 41.8701 10.6191V34.3549C41.8701 34.6981 42.1497 34.9779 42.4952 34.9779H43.745C44.0905 34.9779 44.37 34.6981 44.37 34.3549V10.6191C44.37 10.2738 44.0905 9.99445 43.745 9.99445Z" fill="#5E1211"/>
</svg>
